<svg aria-hidden="true" style="position: absolute; width: 0; height: 0; overflow: hidden;" version="1.1" xmlns="http://www.w3.org/2000/svg" xmlns:xlink="http://www.w3.org/1999/xlink">
<defs>
<symbol id="icon-close" viewBox="0 0 32 32">
<path stroke-linejoin="miter" stroke-linecap="butt" stroke-miterlimit="4" stroke-width="1" d="M23.467 7.732c0.259 0 0.439 0.079 0.58 0.221s0.22 0.321 0.22 0.579c0 0.259-0.078 0.439-0.22 0.58l-6.888 6.887 6.888 6.887c0.141 0.142 0.22 0.321 0.22 0.58s-0.078 0.439-0.22 0.58c-0.142 0.142-0.321 0.22-0.58 0.22s-0.439-0.078-0.58-0.22l-6.887-6.888-6.887 6.888c-0.142 0.141-0.321 0.22-0.58 0.22s-0.438-0.078-0.579-0.22c-0.141-0.142-0.221-0.321-0.221-0.58s0.079-0.439 0.221-0.58l6.887-6.887-6.887-6.887c-0.141-0.142-0.221-0.321-0.221-0.58s0.079-0.438 0.221-0.579 0.321-0.221 0.579-0.221c0.259 0 0.439 0.079 0.58 0.221l6.887 6.887 6.887-6.887c0.142-0.141 0.321-0.221 0.58-0.221z"></path>
</symbol>
<symbol id="icon-menu" viewBox="0 0 32 32">
<path d="M5.333 8h21.333v2.667h-21.333v-2.667zM5.333 14.667h21.333v2.667h-21.333v-2.667zM5.333 21.333h21.333v2.667h-21.333v-2.667z"></path>
</symbol>
</defs>
</svg>
